<svg width="37" height="35" viewBox="0 0 37 35" fill="none" xmlns="http://www.w3.org/2000/svg">
<path d="M37 7.38079C37 6.29032 36.561 5.2445 35.7796 4.47342C34.9982 3.70234 33.9385 3.26915 32.8334 3.26915H28.7317V1.6519C28.7317 1.40958 28.6341 1.17717 28.4605 1.00582C28.2868 0.834469 28.0513 0.738205 27.8058 0.738205C27.5602 0.738205 27.3247 0.834469 27.1511 1.00582C26.9774 1.17717 26.8799 1.40958 26.8799 1.6519V3.26915H10.9173V1.6519C10.9173 1.40958 10.8197 1.17717 10.6461 1.00582C10.4725 0.834469 10.237 0.738205 9.99139 0.738205C9.74583 0.738205 9.51032 0.834469 9.33668 1.00582C9.16304 1.17717 9.06549 1.40958 9.06549 1.6519V3.26915H4.96374C3.8587 3.26915 2.79892 3.70234 2.01754 4.47342C1.23616 5.2445 0.79718 6.29032 0.79718 7.38079V30.1502C0.79718 31.2406 1.23616 32.2864 2.01754 33.0575C2.79892 33.8286 3.8587 34.2618 4.96374 34.2618H32.8334C33.9385 34.2618 34.9982 33.8286 35.7796 33.0575C36.561 32.2864 37 31.2406 37 30.1502V7.38079ZM35.1482 30.1547C35.1482 30.4547 35.0883 30.7517 34.972 31.0289C34.8556 31.306 34.6851 31.5578 34.4702 31.7699C34.2553 31.982 34.0001 32.1503 33.7192 32.2651C33.4384 32.3799 33.1374 32.439 32.8334 32.439H4.96374C4.65976 32.439 4.35876 32.3799 4.07792 32.2651C3.79708 32.1503 3.54191 31.982 3.32696 31.7699C3.11202 31.5578 2.94151 31.306 2.82519 31.0289C2.70886 30.7517 2.64899 30.4547 2.64899 30.1547V14.2792H35.1482V30.1547ZM35.1482 12.4564H2.64899V7.38079C2.64899 6.77497 2.89286 6.19397 3.32696 5.76559C3.76106 5.33721 4.34983 5.09655 4.96374 5.09655H9.07012V7.62749C9.07012 7.86982 9.16767 8.10222 9.34131 8.27357C9.51495 8.44492 9.75046 8.54119 9.99603 8.54119C10.2416 8.54119 10.4771 8.44492 10.6507 8.27357C10.8244 8.10222 10.9219 7.86982 10.9219 7.62749V5.09655H26.8799V7.62749C26.8799 7.86982 26.9774 8.10222 27.1511 8.27357C27.3247 8.44492 27.5602 8.54119 27.8058 8.54119C28.0513 8.54119 28.2868 8.44492 28.4605 8.27357C28.6341 8.10222 28.7317 7.86982 28.7317 7.62749V5.09655H32.8334C33.4473 5.09655 34.0361 5.33721 34.4702 5.76559C34.9043 6.19397 35.1482 6.77497 35.1482 7.38079V12.4564Z" fill="white"/>
<path d="M11.959 17.0432H11.9544C10.924 17.0432 10.0887 17.8674 10.0887 18.8843V18.8888C10.0887 19.9056 10.924 20.7299 11.9544 20.7299H11.959C12.9894 20.7299 13.8247 19.9056 13.8247 18.8888V18.8843C13.8247 17.8674 12.9894 17.0432 11.959 17.0432Z" fill="white"/>
<path d="M16.5885 17.0432H16.5838C15.5534 17.0432 14.7181 17.8674 14.7181 18.8843V18.8888C14.7181 19.9056 15.5534 20.7299 16.5838 20.7299H16.5885C17.6189 20.7299 18.4542 19.9056 18.4542 18.8888V18.8843C18.4542 17.8674 17.6189 17.0432 16.5885 17.0432Z" fill="white"/>
<path d="M21.218 17.0432H21.2134C20.183 17.0432 19.3477 17.8674 19.3477 18.8843V18.8888C19.3477 19.9056 20.183 20.7299 21.2134 20.7299H21.218C22.2484 20.7299 23.0837 19.9056 23.0837 18.8888V18.8843C23.0837 17.8674 22.2484 17.0432 21.218 17.0432Z" fill="white"/>
<path d="M25.8474 17.0432H25.8428C24.8124 17.0432 23.9771 17.8674 23.9771 18.8843V18.8888C23.9771 19.9056 24.8124 20.7299 25.8428 20.7299H25.8474C26.8778 20.7299 27.7131 19.9056 27.7131 18.8888V18.8843C27.7131 17.8674 26.8778 17.0432 25.8474 17.0432Z" fill="white"/>
<path d="M30.477 17.0432H30.4724C29.442 17.0432 28.6067 17.8674 28.6067 18.8843V18.8888C28.6067 19.9056 29.442 20.7299 30.4724 20.7299H30.477C31.5074 20.7299 32.3427 19.9056 32.3427 18.8888V18.8843C32.3427 17.8674 31.5074 17.0432 30.477 17.0432Z" fill="white"/>
<path d="M7.32943 21.6116H7.3248C6.29441 21.6116 5.45911 22.4359 5.45911 23.4527V23.4573C5.45911 24.4741 6.29441 25.2984 7.3248 25.2984H7.32943C8.35982 25.2984 9.19512 24.4741 9.19512 23.4573V23.4527C9.19512 22.4359 8.35982 21.6116 7.32943 21.6116Z" fill="white"/>
<path d="M11.959 21.6116H11.9544C10.924 21.6116 10.0887 22.4359 10.0887 23.4527V23.4573C10.0887 24.4741 10.924 25.2984 11.9544 25.2984H11.959C12.9894 25.2984 13.8247 24.4741 13.8247 23.4573V23.4527C13.8247 22.4359 12.9894 21.6116 11.959 21.6116Z" fill="white"/>
<path d="M16.5885 21.6116H16.5838C15.5534 21.6116 14.7181 22.4359 14.7181 23.4527V23.4573C14.7181 24.4741 15.5534 25.2984 16.5838 25.2984H16.5885C17.6189 25.2984 18.4542 24.4741 18.4542 23.4573V23.4527C18.4542 22.4359 17.6189 21.6116 16.5885 21.6116Z" fill="white"/>
<path d="M21.218 21.6116H21.2134C20.183 21.6116 19.3477 22.4359 19.3477 23.4527V23.4573C19.3477 24.4741 20.183 25.2984 21.2134 25.2984H21.218C22.2484 25.2984 23.0837 24.4741 23.0837 23.4573V23.4527C23.0837 22.4359 22.2484 21.6116 21.218 21.6116Z" fill="white"/>
<path d="M25.8474 21.6116H25.8428C24.8124 21.6116 23.9771 22.4359 23.9771 23.4527V23.4573C23.9771 24.4741 24.8124 25.2984 25.8428 25.2984H25.8474C26.8778 25.2984 27.7131 24.4741 27.7131 23.4573V23.4527C27.7131 22.4359 26.8778 21.6116 25.8474 21.6116Z" fill="white"/>
<path d="M30.477 21.6116H30.4724C29.442 21.6116 28.6067 22.4359 28.6067 23.4527V23.4573C28.6067 24.4741 29.442 25.2984 30.4724 25.2984H30.477C31.5074 25.2984 32.3427 24.4741 32.3427 23.4573V23.4527C32.3427 22.4359 31.5074 21.6116 30.477 21.6116Z" fill="white"/>
<path d="M7.32943 26.1801H7.3248C6.29441 26.1801 5.45911 27.0044 5.45911 28.0212V28.0258C5.45911 29.0426 6.29441 29.8669 7.3248 29.8669H7.32943C8.35982 29.8669 9.19512 29.0426 9.19512 28.0258V28.0212C9.19512 27.0044 8.35982 26.1801 7.32943 26.1801Z" fill="white"/>
<path d="M11.959 26.1801H11.9544C10.924 26.1801 10.0887 27.0044 10.0887 28.0212V28.0258C10.0887 29.0426 10.924 29.8669 11.9544 29.8669H11.959C12.9894 29.8669 13.8247 29.0426 13.8247 28.0258V28.0212C13.8247 27.0044 12.9894 26.1801 11.959 26.1801Z" fill="white"/>
<path d="M16.5885 26.1801H16.5838C15.5534 26.1801 14.7181 27.0044 14.7181 28.0212V28.0258C14.7181 29.0426 15.5534 29.8669 16.5838 29.8669H16.5885C17.6189 29.8669 18.4542 29.0426 18.4542 28.0258V28.0212C18.4542 27.0044 17.6189 26.1801 16.5885 26.1801Z" fill="white"/>
<path d="M21.218 26.1801H21.2134C20.183 26.1801 19.3477 27.0044 19.3477 28.0212V28.0258C19.3477 29.0426 20.183 29.8669 21.2134 29.8669H21.218C22.2484 29.8669 23.0837 29.0426 23.0837 28.0258V28.0212C23.0837 27.0044 22.2484 26.1801 21.218 26.1801Z" fill="white"/>
<path d="M25.8474 26.1801H25.8428C24.8124 26.1801 23.9771 27.0044 23.9771 28.0212V28.0258C23.9771 29.0426 24.8124 29.8669 25.8428 29.8669H25.8474C26.8778 29.8669 27.7131 29.0426 27.7131 28.0258V28.0212C27.7131 27.0044 26.8778 26.1801 25.8474 26.1801Z" fill="white"/>
</svg>
